<svg width="200px" height="200px" viewBox="0 0 200 200" version="1.1"
  xmlns="http://www.w3.org/2000/svg"
  xmlns:xlink="http://www.w3.org/1999/xlink">
  <!-- Generator: Sketch 51.2 (57519) - http://www.bohemiancoding.com/sketch-->
  <title>Branding</title>
  <desc>Created with Sketch.</desc>
  <defs>
    <lineargradient id="brand-linearGradient-1" x1="31.0546875%" y1="31.0136719%" x2="61.1679688%" y2="69.2753906%">
      <stop stop-color="#FF8989" offset="0%"></stop>
      <stop stop-color="#FFDDC5" offset="100%"></stop>
    </lineargradient>
    <clipPath id="brand-particle">
      <path id="brandTri1" d="M118.577311,88 L122.524037,88 L120.550674,84.7110611 L118.577311,88 Z M124.239023,86.9710085 C124.80732,87.918169 124.500189,89.1466895 123.553029,89.7149859 C123.242198,89.9014843 122.886525,90 122.524037,90 L118.577311,90 C117.472741,90 116.577311,89.1045695 116.577311,88 C116.577311,87.6375121 116.675826,87.2818393 116.862325,86.9710085 L118.835688,83.6820696 C119.403985,82.7349091 120.632505,82.4277789 121.579666,82.9960753 C121.861165,83.1649748 122.09676,83.4005704 122.26566,83.6820696 L124.239023,86.9710085 Z" fill="#FFFFFF" fill-rule="nonzero"></path>
      <path id="brandTri2" d="M81,88.9436506 L79.7661904,91 L82.2338096,91 L81,88.9436506 Z M83.9487955,89.9710085 C84.5170918,90.918169 84.2099617,92.1466895 83.2628011,92.7149859 C82.9519703,92.9014843 82.5962975,93 82.2338096,93 L79.7661904,93 C78.6616209,93 77.7661904,92.1045695 77.7661904,91 C77.7661904,90.6375121 77.864706,90.2818393 78.0512045,89.9710085 L79.2850141,87.9146591 C79.8533105,86.9674986 81.081831,86.6603685 82.0289915,87.2286648 C82.3104907,87.3975643 82.5460863,87.6331599 82.7149859,87.9146591 L83.9487955,89.9710085 Z" fill="#FFFFFF" fill-rule="nonzero"></path>
      <path id="brandTri3" d="M114,118.943651 L112.76619,121 L115.23381,121 L114,118.943651 Z M116.948795,119.971008 C117.517092,120.918169 117.209962,122.14669 116.262801,122.714986 C115.95197,122.901484 115.596298,123 115.23381,123 L112.76619,123 C111.661621,123 110.76619,122.104569 110.76619,121 C110.76619,120.637512 110.864706,120.281839 111.051205,119.971008 L112.285014,117.914659 C112.85331,116.967499 114.081831,116.660368 115.028992,117.228665 C115.310491,117.397564 115.546086,117.63316 115.714986,117.914659 L116.948795,119.971008 Z" fill="#FFFFFF" fill-rule="nonzero"></path>
      <path id="brandTri4" d="M118.577311,88 L122.524037,88 L120.550674,84.7110611 L118.577311,88 Z M124.239023,86.9710085 C124.80732,87.918169 124.500189,89.1466895 123.553029,89.7149859 C123.242198,89.9014843 122.886525,90 122.524037,90 L118.577311,90 C117.472741,90 116.577311,89.1045695 116.577311,88 C116.577311,87.6375121 116.675826,87.2818393 116.862325,86.9710085 L118.835688,83.6820696 C119.403985,82.7349091 120.632505,82.4277789 121.579666,82.9960753 C121.861165,83.1649748 122.09676,83.4005704 122.26566,83.6820696 L124.239023,86.9710085 Z" fill="#FFFFFF" fill-rule="nonzero"></path>
    </clipPath>
  </defs>
  <g id="Brand-Mask-Page-1" stroke="none" stroke-width="1" fill="none" fill-rule="evenodd">
    <g id="brandMask" clip-path="url(#brand-particle)">
      <rect id="brandRectMask" fill="url(#brand-linearGradient-1)" x="0" y="0" width="200" height="200"></rect>
      <circle id="brandCircleMask" fill="#FFFFFF" cx="100.5" cy="100.5" r="38.5" opacity=".7"></circle>
    </g>
  </g>
</svg>