<svg width="200px" height="200px" viewBox="0 0 200 200" version="1.1"
  xmlns="http://www.w3.org/2000/svg"
  xmlns:xlink="http://www.w3.org/1999/xlink">
  <!-- Generator: Sketch 51.2 (57519) - http://www.bohemiancoding.com/sketch-->
  <title>Photography</title>
  <desc>Created with Sketch.</desc>
  <defs>
    <lineargradient id="photo-linearGradient-1" x1="31.6680129%" y1="26.4698709%" x2="69.6555399%" y2="69.3945556%">
      <stop stop-color="#59DBB0" offset="0%"></stop>
      <stop stop-color="#FEFFB5" offset="100%"></stop>
    </lineargradient>
    <clipPath id="photo-particle">
      <path id="photoPlus1" d="M78.8,85.8 L78.8,85 C78.8,84.4477153 79.2477153,84 79.8,84 L80.2,84 C80.7522847,84 81.2,84.4477153 81.2,85 L81.2,85.8 L82,85.8 C82.5522847,85.8 83,86.2477153 83,86.8 L83,87.2 C83,87.7522847 82.5522847,88.2 82,88.2 L81.2,88.2 L81.2,89 C81.2,89.5522847 80.7522847,90 80.2,90 L79.8,90 C79.2477153,90 78.8,89.5522847 78.8,89 L78.8,88.2 L78,88.2 C77.4477153,88.2 77,87.7522847 77,87.2 L77,86.8 C77,86.2477153 77.4477153,85.8 78,85.8 L78.8,85.8 Z" fill="#FFFFFF"></path>
      <path id="photoPlus2" d="M124.333333,85.6666667 L126,85.6666667 C126.552285,85.6666667 127,86.1143819 127,86.6666667 L127,87.3333333 C127,87.8856181 126.552285,88.3333333 126,88.3333333 L124.333333,88.3333333 L124.333333,90 C124.333333,90.5522847 123.885618,91 123.333333,91 L122.666667,91 C122.114382,91 121.666667,90.5522847 121.666667,90 L121.666667,88.3333333 L120,88.3333333 C119.447715,88.3333333 119,87.8856181 119,87.3333333 L119,86.6666667 C119,86.1143819 119.447715,85.6666667 120,85.6666667 L121.666667,85.6666667 L121.666667,84 C121.666667,83.4477153 122.114382,83 122.666667,83 L123.333333,83 C123.885618,83 124.333333,83.4477153 124.333333,84 L124.333333,85.6666667 Z" fill="#FFFFFF"></path>
      <path id="photoPlus3" d="M107.8,122.8 L107.8,122 C107.8,121.447715 108.247715,121 108.8,121 L109.2,121 C109.752285,121 110.2,121.447715 110.2,122 L110.2,122.8 L111,122.8 C111.552285,122.8 112,123.247715 112,123.8 L112,124.2 C112,124.752285 111.552285,125.2 111,125.2 L110.2,125.2 L110.2,126 C110.2,126.552285 109.752285,127 109.2,127 L108.8,127 C108.247715,127 107.8,126.552285 107.8,126 L107.8,125.2 L107,125.2 C106.447715,125.2 106,124.752285 106,124.2 L106,123.8 C106,123.247715 106.447715,122.8 107,122.8 L107.8,122.8 Z" fill="#FFFFFF"></path>
      <path id="photoPlus4" d="M78.8,85.8 L78.8,85 C78.8,84.4477153 79.2477153,84 79.8,84 L80.2,84 C80.7522847,84 81.2,84.4477153 81.2,85 L81.2,85.8 L82,85.8 C82.5522847,85.8 83,86.2477153 83,86.8 L83,87.2 C83,87.7522847 82.5522847,88.2 82,88.2 L81.2,88.2 L81.2,89 C81.2,89.5522847 80.7522847,90 80.2,90 L79.8,90 C79.2477153,90 78.8,89.5522847 78.8,89 L78.8,88.2 L78,88.2 C77.4477153,88.2 77,87.7522847 77,87.2 L77,86.8 C77,86.2477153 77.4477153,85.8 78,85.8 L78.8,85.8 Z" fill="#FFFFFF"></path>
    </clipPath>
  </defs>
  <g id="Photo-Mask-Page-1" stroke="none" stroke-width="1" fill="none" fill-rule="evenodd">
    <g id="photoMask" clip-path="url(#photo-particle)">
      <rect id="photoRectMask" fill="url(#photo-linearGradient-1)" x="0" y="0" width="200" height="200"></rect>
      <circle id="photoCircleMask" fill="#FFFFFF" cx="100.5" cy="100.5" r="38.5" opacity=".7"></circle>
    </g>
  </g>
</svg>