<svg width="200px" height="200px" viewBox="0 0 200 200" version="1.1"
  xmlns="http://www.w3.org/2000/svg"
  xmlns:xlink="http://www.w3.org/1999/xlink">
  <!-- Generator: Sketch 51.2 (57519) - http://www.bohemiancoding.com/sketch-->
  <title>Animation</title>
  <desc>Created with Sketch.</desc>
  <defs>
    <lineargradient id="anim-linearGradient-1" x1="30.9785156%" y1="25.7265625%" x2="71.109375%" y2="68.6582031%">
      <stop stop-color="#FFAF73" offset="0%"></stop>
      <stop stop-color="#FFFECC" offset="100%"></stop>
    </lineargradient>
    <clipPath id="anim-particle">
      <path id="animPenta1" d="M112.5,117.236068 L110.346873,118.800407 L111.169294,121.331559 L113.830706,121.331559 L114.653127,118.800407 L112.5,117.236068 Z M113.675571,115.618034 L115.828698,117.182373 C116.529673,117.691661 116.822989,118.594395 116.55524,119.418441 L115.732819,121.949593 C115.46507,122.773639 114.697158,123.331559 113.830706,123.331559 L111.169294,123.331559 C110.302842,123.331559 109.53493,122.773639 109.267181,121.949593 L108.44476,119.418441 C108.177011,118.594395 108.470327,117.691661 109.171302,117.182373 L111.324429,115.618034 C112.025404,115.108746 112.974596,115.108746 113.675571,115.618034 Z" fill="#FFFFFF" fill-rule="nonzero"></path>
      <path id="animPenta2" d="M123.201882,95.91245 L123.662979,97.3315595 L125.155119,97.3315595 L125.616216,95.91245 L124.409049,95.035392 L123.201882,95.91245 Z M126.791786,94.294416 C127.492761,94.803704 127.786077,95.7064386 127.518329,96.530484 L127.057232,97.9495935 C126.789484,98.7736388 126.021572,99.3315595 125.155119,99.3315595 L123.662979,99.3315595 C122.796526,99.3315595 122.028615,98.7736388 121.760866,97.9495935 L121.299769,96.530484 C121.032021,95.7064386 121.325337,94.803704 122.026312,94.294416 L123.233479,93.4173581 C123.934453,92.90807 124.883645,92.90807 125.58462,93.4173581 L126.791786,94.294416 Z" fill="#FFFFFF" fill-rule="nonzero"></path>
      <path id="animPenta3" d="M82.0411799,86.91245 L82.5022766,88.3315595 L83.9944166,88.3315595 L84.4555133,86.91245 L83.2483466,86.035392 L82.0411799,86.91245 Z M85.6310838,85.294416 C86.3320586,85.803704 86.6253748,86.7064386 86.3576263,87.530484 L85.8965297,88.9495935 C85.6287811,89.7736388 84.8608691,90.3315595 83.9944166,90.3315595 L82.5022766,90.3315595 C81.6358241,90.3315595 80.8679121,89.7736388 80.6001635,88.9495935 L80.1390669,87.530484 C79.8713184,86.7064386 80.1646346,85.803704 80.8656094,85.294416 L82.0727761,84.4173581 C82.7737509,83.90807 83.7229423,83.90807 84.4239171,84.4173581 L85.6310838,85.294416 Z" fill="#FFFFFF" fill-rule="nonzero"></path>
      <path id="animPenta4" d="M123.201882,95.91245 L123.662979,97.3315595 L125.155119,97.3315595 L125.616216,95.91245 L124.409049,95.035392 L123.201882,95.91245 Z M126.791786,94.294416 C127.492761,94.803704 127.786077,95.7064386 127.518329,96.530484 L127.057232,97.9495935 C126.789484,98.7736388 126.021572,99.3315595 125.155119,99.3315595 L123.662979,99.3315595 C122.796526,99.3315595 122.028615,98.7736388 121.760866,97.9495935 L121.299769,96.530484 C121.032021,95.7064386 121.325337,94.803704 122.026312,94.294416 L123.233479,93.4173581 C123.934453,92.90807 124.883645,92.90807 125.58462,93.4173581 L126.791786,94.294416 Z" fill="#FFFFFF" fill-rule="nonzero"></path>
    </clipPath>
  </defs>
  <g id="Anim-Mask-Page-1" stroke="none" stroke-width="1" fill="none" fill-rule="evenodd">
    <g id="animMask" clip-path="url(#anim-particle)">
      <rect id="animRectMask" fill="url(#anim-linearGradient-1)" x="0" y="0" width="200" height="200"></rect>
      <circle id="animCircleMask" fill="#FFFFFF" cx="100.5" cy="100.5" r="38.5" opacity=".7"></circle>
    </g>
  </g>
</svg>